# xmcd
#
# Track frame offsets:
#	150
#	15372
#	32188
#	48668
#	65796
#	82123
#	99723
#	124850
#	141394
#	157009
#	173072
#	188489
#	205621
#	221914
#	238914
#	253930
#	270303
#	285738
#	301459
#	326233
#
# Disc length: 4624 seconds
#
# Revision: 2
# Processed by: cddbd v1.5.2PL0 Copyright (c) Steve Scherf et al.
# Submitted via: audiograbber 1.83.01
#
DISCID=36120e14
DTITLE=Various Artist - Melodic Trance 2007
DYEAR=2007
DGENRE=Trance
TTITLE0=Pedro Del Mar feat. Emma Nelson - Feel (DJ Shog Remix Edit)
TTITLE1=Tosch - Lost In Love (Radio Edit)
TTITLE2=Spacecube - Forever Again (Radio Mix)
TTITLE3=Sun Liquide - Celebrate The Light (Rene Ablaze Radio Cut)
TTITLE4=Deep Spirit - No Cover Song (Manox Radio Edit)
TTITLE5=Brisby and Jingles - Heaven (Club Radio Mix)
TTITLE6=Speedmaster Project - Tainted Love '07 (Jordan vs. Full Gainer Remix Ed
TTITLE6=it)
TTITLE7=Dancefloor Saints - Carry On (Kriz van Dale Radio Mix)
TTITLE8=Kim Leoni - Again (Neo Cortex Radio Remix)
TTITLE9=Visior and Dark Moon - Beautiful People (Original Single Edit)
TTITLE10=Lacuna - Celebrate The Summer (Off Cast Radio Mix)
TTITLE11=Moonraver Reloaded - Ozean Der Zeit (Radio Version)
TTITLE12=Lazard - My Heart Keeps Burning (Dany Wild Radio Version)
TTITLE13=Selena - Freed From Desire (Radio Mix)
TTITLE14=Scotty - West End Girls (Sebastian Wolter Remix Edit)
TTITLE15=Mario Lopez - The Final (Backside Artist Radio Mix)
TTITLE16=Ultra feat. Ulli Brenner - Free (DJ Klubbingman Edit)
TTITLE17=Dyce - Tomorrow Can Wait (Cascada Radio Mix)
TTITLE18=DJ Schwede meets Dr. Flash - Love Is Strange (Extd. Mix Edit)
TTITLE19=Belmond and Parker - Going Back To My Roots (Jordan Remix Edit)
EXTD=
EXTT0=
EXTT1=
EXTT2=
EXTT3=
EXTT4=
EXTT5=
EXTT6=
EXTT7=
EXTT8=
EXTT9=
EXTT10=
EXTT11=
EXTT12=
EXTT13=
EXTT14=
EXTT15=
EXTT16=
EXTT17=
EXTT18=
EXTT19=
PLAYORDER=
